<svg xmlns="http://www.w3.org/2000/svg" viewBox="0 0 509.42 509.42"><defs><style>.cls-1{fill:none;stroke:#fff;stroke-miterlimit:10;stroke-width:10px;}.cls-2{fill:#fff;}</style></defs><title>scrollDownBtn</title><g id="Warstwa_2" data-name="Warstwa 2"><g id="Warstwa_1-2" data-name="Warstwa 1"><circle class="cls-1" cx="254.71" cy="254.71" r="249.71"/><path class="cls-2" d="M253.47,235.08l-104.9-108a5,5,0,0,1,.1-7.07h0a5,5,0,0,1,7.07.1l97.57,100.42a5,5,0,0,0,7.25-.08l93-100.17a5,5,0,0,1,7.07-.26h0a5,5,0,0,1,.26,7.07L260.72,235A5,5,0,0,1,253.47,235.08Z"/><path class="cls-2" d="M253.47,312.41l-104.9-108a5,5,0,0,1,.1-7.07h0a5,5,0,0,1,7.07.1L253.31,297.9a5,5,0,0,0,7.25-.08l93-100.17a5,5,0,0,1,7.07-.26h0a5,5,0,0,1,.26,7.07L260.72,312.33A5,5,0,0,1,253.47,312.41Z"/><path class="cls-2" d="M253.47,389.08l-104.9-108a5,5,0,0,1,.1-7.07h0a5,5,0,0,1,7.07.1l97.57,100.42a5,5,0,0,0,7.25-.08l93-100.17a5,5,0,0,1,7.07-.26h0a5,5,0,0,1,.26,7.07L260.72,389A5,5,0,0,1,253.47,389.08Z"/></g></g></svg>