<svg xmlns="http://www.w3.org/2000/svg" xmlns:xlink="http://www.w3.org/1999/xlink" viewBox="0 0 1031.51 662.39"><defs><style>.cls-1{fill:url(#Gradient_bez_nazwy_43);}.cls-2{fill:url(#Gradient_bez_nazwy_43-2);}.cls-3{fill:url(#Gradient_bez_nazwy_43-3);}.cls-4{fill:#fff;}.cls-5{opacity:0.24;}.cls-6{fill:url(#Gradient_bez_nazwy_43-4);}.cls-7{fill:url(#Gradient_bez_nazwy_43-5);}.cls-8{fill:url(#Gradient_bez_nazwy_43-6);}.cls-9{fill:url(#Gradient_bez_nazwy_43-7);}.cls-10{fill:url(#Gradient_bez_nazwy_43-8);}.cls-11{fill:url(#Gradient_bez_nazwy_43-9);}</style><linearGradient id="Gradient_bez_nazwy_43" x1="55.08" y1="661.03" x2="55.08" y2="538.74" gradientUnits="userSpaceOnUse"><stop offset="0" stop-color="#f46b45"/><stop offset="1" stop-color="#eea849"/></linearGradient><linearGradient id="Gradient_bez_nazwy_43-2" x1="163.86" y1="661.03" x2="163.86" y2="538.74" xlink:href="#Gradient_bez_nazwy_43"/><linearGradient id="Gradient_bez_nazwy_43-3" x1="274.14" y1="661.03" x2="274.14" y2="538.74" xlink:href="#Gradient_bez_nazwy_43"/><linearGradient id="Gradient_bez_nazwy_43-4" x1="463.72" y1="231.31" x2="463.72" y2="231.31" xlink:href="#Gradient_bez_nazwy_43"/><linearGradient id="Gradient_bez_nazwy_43-5" x1="455.62" y1="51.57" x2="455.62" y2="51.57" xlink:href="#Gradient_bez_nazwy_43"/><linearGradient id="Gradient_bez_nazwy_43-6" x1="569.69" y1="229.06" x2="569.69" y2="229.06" xlink:href="#Gradient_bez_nazwy_43"/><linearGradient id="Gradient_bez_nazwy_43-7" x1="521.86" y1="110.32" x2="699.24" y2="110.32" xlink:href="#Gradient_bez_nazwy_43"/><linearGradient id="Gradient_bez_nazwy_43-8" x1="361.91" y1="170.92" x2="451" y2="16.6" xlink:href="#Gradient_bez_nazwy_43"/><linearGradient id="Gradient_bez_nazwy_43-9" x1="515.76" y1="148.9" x2="515.76" y2="475.43" xlink:href="#Gradient_bez_nazwy_43"/></defs><title>xen_logo_official</title><g id="Warstwa_2" data-name="Warstwa 2"><g id="Warstwa_1-2" data-name="Warstwa 1"><path class="cls-1" d="M110.15,661H90.36a4.87,4.87,0,0,1-3.31-1.1,9.22,9.22,0,0,1-2-2.46l-30.4-49q-.34,1-.72,2A13,13,0,0,1,53,612.2L23.61,657.47a15.86,15.86,0,0,1-2.08,2.46,4.16,4.16,0,0,1-3,1.1H0l41.27-62.85L1.7,538.74H21.4a5.84,5.84,0,0,1,3.1.64,5.76,5.76,0,0,1,1.74,1.91L56,588l.85-2a15.16,15.16,0,0,1,1.1-2.12l27.69-42.21a6.86,6.86,0,0,1,1.87-2.17,4.15,4.15,0,0,1,2.46-.72h18.94L69,597.34Z"/><path class="cls-2" d="M202,645,202,661H125.69V538.74H202v16.05H145.65v36.86h45v15.54h-45V645Z"/><path class="cls-3" d="M324.76,538.74V661H314.65a8.64,8.64,0,0,1-3.91-.81,9.11,9.11,0,0,1-3.06-2.68l-67.18-86.29q.25,2.46.38,4.88t.13,4.46V661h-17.5V538.74h10.36a15.62,15.62,0,0,1,2.17.13,6.26,6.26,0,0,1,1.66.47,4.84,4.84,0,0,1,1.44,1,16,16,0,0,1,1.44,1.7l67.26,86.37q-.25-2.63-.38-5.18t-.13-4.76V538.74Z"/><path class="cls-4" d="M454,600.82v48.41q-18.26,13.16-42.46,13.16a74.26,74.26,0,0,1-26.88-4.63,59.67,59.67,0,0,1-20.51-12.91,56.53,56.53,0,0,1-13.08-19.75,67.33,67.33,0,0,1-4.59-25.22,70.21,70.21,0,0,1,4.42-25.35,55.39,55.39,0,0,1,32.53-32.61,71.43,71.43,0,0,1,26.16-4.54,77,77,0,0,1,13.72,1.15,67.9,67.9,0,0,1,11.76,3.18,55,55,0,0,1,10,4.93,56.07,56.07,0,0,1,8.41,6.45l-5.69,9.09a5.66,5.66,0,0,1-3.48,2.63,6,6,0,0,1-4.59-1l-5.22-3.06a45.57,45.57,0,0,0-6.33-3,46.42,46.42,0,0,0-8.24-2.29,59.6,59.6,0,0,0-11-.89,45.65,45.65,0,0,0-17.45,3.18,37.33,37.33,0,0,0-13.29,9.09,40.3,40.3,0,0,0-8.49,14.31,56,56,0,0,0-3,18.77,56.91,56.91,0,0,0,3.14,19.58,40.87,40.87,0,0,0,8.92,14.61,38,38,0,0,0,14,9.13,55.73,55.73,0,0,0,31.76,1.53,61.31,61.31,0,0,0,11.59-4.5V615.94H419a4.22,4.22,0,0,1-3.06-1.06,3.65,3.65,0,0,1-1.1-2.76V600.82Z"/><path class="cls-4" d="M578.6,661H563.23a6.5,6.5,0,0,1-4.25-1.32,8.53,8.53,0,0,1-2.46-3.27l-10.19-27H493.68l-10.19,27a8.15,8.15,0,0,1-2.38,3.14,6.33,6.33,0,0,1-4.25,1.44H461.49L510,538.74h20.13ZM541,615.17,524.16,570.5A123.34,123.34,0,0,1,520,557.34q-.94,4-2,7.35t-2,5.9l-16.82,44.59Z"/><path class="cls-4" d="M723,538.74V661h-17.5V577.21q0-2,.13-4.46t.38-4.88l-39.32,72.61a7.47,7.47,0,0,1-7,4.5h-2.8a7.36,7.36,0,0,1-7-4.5L609.85,567.7q.25,2.46.38,4.93t.13,4.59V661h-17.5V538.74h14.86a13.9,13.9,0,0,1,4.08.47,5.14,5.14,0,0,1,2.63,2.85l39.24,71.08q1.27,2.46,2.42,5.05t2.08,5.31q1-2.72,2.17-5.39t2.42-5.14l38.64-70.91q1.19-2.38,2.63-2.85a13.88,13.88,0,0,1,4.08-.47Z"/><path class="cls-4" d="M772,661H752V538.74h20Z"/><path class="cls-4" d="M902.26,538.74V661H892.15a8.64,8.64,0,0,1-3.91-.81,9.11,9.11,0,0,1-3.06-2.68L818,571.27q.25,2.46.38,4.88t.13,4.46V661H801V538.74h10.36a15.62,15.62,0,0,1,2.17.13,6.26,6.26,0,0,1,1.66.47,4.84,4.84,0,0,1,1.44,1,16,16,0,0,1,1.44,1.7l67.26,86.37q-.25-2.63-.38-5.18t-.13-4.76V538.74Z"/><path class="cls-4" d="M1031.51,600.82v48.41q-18.26,13.16-42.46,13.16a74.26,74.26,0,0,1-26.88-4.63,59.67,59.67,0,0,1-20.51-12.91,56.53,56.53,0,0,1-13.08-19.75A67.33,67.33,0,0,1,924,599.89a70.21,70.21,0,0,1,4.42-25.35,55.39,55.39,0,0,1,32.53-32.61,71.43,71.43,0,0,1,26.16-4.54,77,77,0,0,1,13.72,1.15,67.9,67.9,0,0,1,11.76,3.18,55,55,0,0,1,10,4.93,56.07,56.07,0,0,1,8.41,6.45l-5.69,9.09a5.66,5.66,0,0,1-3.48,2.63,6,6,0,0,1-4.59-1l-5.22-3.06a45.57,45.57,0,0,0-6.33-3,46.42,46.42,0,0,0-8.24-2.29,59.6,59.6,0,0,0-11-.89A45.65,45.65,0,0,0,969,557.72a37.33,37.33,0,0,0-13.29,9.09,40.3,40.3,0,0,0-8.49,14.31,56,56,0,0,0-3,18.77,56.91,56.91,0,0,0,3.14,19.58,40.87,40.87,0,0,0,8.92,14.61,38,38,0,0,0,14,9.13,55.73,55.73,0,0,0,31.76,1.53,61.31,61.31,0,0,0,11.59-4.5V615.94H996.52a4.22,4.22,0,0,1-3.06-1.06,3.65,3.65,0,0,1-1.1-2.76V600.82Z"/><g class="cls-5"><path d="M451.25,231.31"/><path d="M441.2,51.57"/><path d="M582.62,229.06"/><path d="M743.22,2.74H650.3a23.44,23.44,0,0,0-11.8,2.79,29.16,29.16,0,0,0-9,8.37L558,100.82l-11.74-11-22.93,21.5L611.07,217.9l35-34.58L615,154.21Z"/><path d="M498.11,91.49l-10.82,10.13L413.82,10.13a25.7,25.7,0,0,0-8.58-7.6Q400.42,0,390,0H292.81L425.07,159.92,398.31,185l34,35.92L521,113Z"/><path d="M708.18,409.88l.79-22.63-126.68-158L518.75,148.9l-69.12,83.61L251.86,475.43h88.71q8.95,0,14.45-4.27a67.29,67.29,0,0,0,10-9.52l41.94-52.08v-12h9.66L425.12,387,421,365.88l23-2.31,73.55-91.33,79.36,106.08h3.35v4.47l4.45,5.94h5.16v6.9l15.41,20.6h8V427l25.93,34.67a38.73,38.73,0,0,0,9.77,9.52q6.1,4.27,15.87,4.27h94.82l-54.8-68.36Z"/></g><path class="cls-6" d="M463.72,231.31"/><path class="cls-7" d="M455.62,51.57"/><path class="cls-8" d="M569.69,229.06"/><path class="cls-9" d="M699.24,2.74h-75a16.05,16.05,0,0,0-9.52,2.79,26.45,26.45,0,0,0-7.22,8.37l-57.72,86.92-9.47-11-18.5,21.5L592.64,217.9l28.21-34.58-25.06-29.11Z"/><path class="cls-10" d="M501.52,91.49l-8.72,10.13L433.53,10.13a22.92,22.92,0,0,0-6.92-7.6Q422.72,0,414.28,0H335.92L442.6,159.92,421,185l27.47,35.92L520,113Z"/><path class="cls-11" d="M671,409.88l.64-22.63-102.18-158L518.17,148.9l-55.76,83.61L302.88,475.43h71.56q7.22,0,11.65-4.27a61.63,61.63,0,0,0,8-9.52L428,409.56v-12h7.79L442.64,387l-3.34-21.1,18.54-2.31,59.33-91.33,64,106.08h2.7v4.47l3.59,5.94h4.16v6.9l12.43,20.6h6.48V427l20.92,34.67a35.74,35.74,0,0,0,7.88,9.52q4.92,4.27,12.8,4.27h76.48l-44.2-68.36Z"/></g></g></svg>